<?xml version="1.0" encoding="utf-8"?>
<!-- Svg Vector Icons : http://www.onlinewebfonts.com/icon -->
<!DOCTYPE svg PUBLIC "-//W3C//DTD SVG 1.1//EN" "http://www.w3.org/Graphics/SVG/1.1/DTD/svg11.dtd">
<svg version="1.1" xmlns="http://www.w3.org/2000/svg" xmlns:xlink="http://www.w3.org/1999/xlink" x="0px" y="0px" viewBox="0 0 1000 1000" enable-background="new 0 0 1000 1000" xml:space="preserve">
<metadata> Svg Vector Icons : http://www.onlinewebfonts.com/icon </metadata>
<g><g transform="translate(0.000000,511.000000) scale(0.100000,-0.100000)"><path d="M795,4970.9c-32.6-37-34.8-373.9-30.4-4603.6l6.5-4562.3l67.4-141.3c82.6-173.9,219.5-315.2,378.2-389.1l119.5-56.5l3923.3-6.5c3673.3-4.4,3925.4-2.2,3951.5,32.6c19.6,28.2,26.1,971.6,26.1,4538.4c0,4336.2-2.2,4505.8-39.1,4538.4c-32.6,30.4-91.3,37-326,37H8585V4647c0,254.3-4.4,295.6-39.1,326c-37,34.8-336.9,37-3877.6,37C971.1,5010,829.8,5007.8,795,4970.9z M8356.8,771.6v-4010.2l-3521.2-10.9l-3521.1-10.9l-119.6-60.9c-65.2-34.8-134.8-76.1-154.3-93.5c-17.4-17.4-41.3-30.4-47.8-30.4c-19.6,0-19.6,8205.1,0,8222.5c6.5,8.7,1667.1,13,3688.5,10.9l3675.5-6.5V771.6z M9015.4-221.7l4.4-4353.6H5244.3c-2536.5,0-3803.7,8.7-3858,21.7c-121.7,34.8-254.3,147.8-330.4,280.4c-167.4,300-19.6,669.5,310.8,780.3c54.3,19.6,986.8,26.1,3605.9,26.1c3256,0,3536.4,2.2,3573.3,37c37,32.6,39.1,180.4,39.1,3803.7v3768.9l213-6.5l210.8-6.5L9015.4-221.7z"/><path d="M2251.3,3831.9c-30.4-41.3-34.8-160.8-34.8-865.1s4.3-823.8,34.8-865.1l32.6-47.8h2410.5h2410.5l32.6,47.8c52.1,73.9,52.1,1656.2,0,1730.1l-32.6,47.8H4694.4H2283.9L2251.3,3831.9z M6933.1,2966.9v-695.5H4694.4H2455.6v695.5v695.5h2238.8h2238.8V2966.9z"/><path d="M1308-3927.6c-37-37-32.6-117.3,8.7-156.5c30.4-30.4,386.9-34.8,3605.9-34.8c3219,0,3575.5,4.4,3605.9,34.8c41.3,39.1,45.6,119.5,8.7,156.5C8500.2-3890.7,1344.9-3890.7,1308-3927.6z"/></g></g>
</svg>